<svg width="24" height="24" viewBox="0 0 24 24" fill="none" xmlns="http://www.w3.org/2000/svg">
<path fill-rule="evenodd" clip-rule="evenodd" d="M21.5 12C21.5 17.2467 17.2467 21.5 12 21.5C6.75329 21.5 2.5 17.2467 2.5 12C2.5 6.75329 6.75329 2.5 12 2.5C17.2467 2.5 21.5 6.75329 21.5 12ZM12 15.1558C12.2339 15.1561 12.467 15.1292 12.6947 15.0756L14.1494 17.5575C13.4628 17.8313 12.7302 17.9714 11.9911 17.9701C8.7789 17.9701 6.02687 15.3665 6.02687 12.1543C6.02577 11.3745 6.16245 10.6007 6.43062 9.86841L9.00155 10.9609C8.91304 11.3083 8.8564 11.6631 8.83233 12.0208C8.93327 13.894 10.3434 15.1558 12 15.1558ZM9.58046 6.55529C10.3397 6.20787 11.165 6.02862 12 6.02982C15.2122 6.02982 17.9553 8.68091 17.9553 11.905C17.9827 12.7511 17.8288 13.5932 17.5041 14.375L10.9995 11.6051L15.1706 11.5873C15.0222 10.0733 13.4666 8.84419 12 8.84419C11.6676 8.84405 11.3375 8.89924 11.0233 9.00747L9.58046 6.55529Z" fill="url(#paint0_linear_2433_25756)"/>
<defs>
<linearGradient id="paint0_linear_2433_25756" x1="18.172" y1="2.91562" x2="0.887969" y2="28.3519" gradientUnits="userSpaceOnUse">
<stop stop-color="#1ABC9C"/>
<stop offset="1" stop-color="#1A5DAF"/>
</linearGradient>
</defs>
</svg>
