<svg width="24" height="24" viewBox="0 0 24 24" fill="none" xmlns="http://www.w3.org/2000/svg">
<path fill-rule="evenodd" clip-rule="evenodd" d="M21.5 12C21.5 6.75273 17.2473 2.5 12 2.5C6.75273 2.5 2.5 6.75273 2.5 12C2.5 17.2473 6.75273 21.5 12 21.5C17.2473 21.5 21.5 17.2473 21.5 12ZM15.6924 10.0629L15.4623 9.83652C13.5512 7.96992 10.4488 7.96992 8.5377 9.83652L8.28535 10.0852C8.18887 10.1779 8.18887 10.3301 8.28535 10.4229L9.07207 11.191C9.12031 11.2393 9.19824 11.2393 9.24648 11.191L9.58418 10.8607C10.9201 9.5582 13.0799 9.5582 14.4158 10.8607L14.7313 11.1687C14.7795 11.217 14.8574 11.217 14.9057 11.1687L15.6924 10.4006C15.7889 10.3078 15.7889 10.1557 15.6924 10.0629ZM17.7928 12.1076L17.0914 11.4248C16.9949 11.332 16.8391 11.332 16.7352 11.4248L14.4938 13.6143C14.4715 13.6365 14.4307 13.6365 14.4084 13.6143L12.167 11.4248C12.0742 11.332 11.9184 11.332 11.8219 11.4248L9.58047 13.6143C9.5582 13.6365 9.51738 13.6365 9.49512 13.6143L7.25371 11.4248C7.16094 11.332 7.00508 11.332 6.90859 11.4248L6.20723 12.1076C6.11074 12.2004 6.11074 12.3525 6.20723 12.4453L9.37637 15.5291C9.46914 15.6219 9.625 15.6219 9.72149 15.5291L11.9629 13.3396C11.9852 13.3174 12.026 13.3174 12.0482 13.3396L14.2896 15.5291C14.3824 15.6219 14.5383 15.6219 14.6348 15.5291L17.7928 12.4453C17.8893 12.3525 17.8893 12.2004 17.7928 12.1076Z" fill="url(#paint0_radial_2433_25713)"/>
<defs>
<radialGradient id="paint0_radial_2433_25713" cx="0" cy="0" r="1" gradientUnits="userSpaceOnUse" gradientTransform="translate(2.50006 12.0003) scale(19)">
<stop stop-color="#5D9DF6"/>
<stop offset="1" stop-color="#006FFF"/>
</radialGradient>
</defs>
</svg>
