<svg width="24" height="24" viewBox="0 0 24 24" fill="none" xmlns="http://www.w3.org/2000/svg">
<path fill-rule="evenodd" clip-rule="evenodd" d="M21.5 12C21.5 17.2467 17.2467 21.5 12 21.5C6.7533 21.5 2.5 17.2467 2.5 12C2.5 6.7533 6.7533 2.5 12 2.5C17.2467 2.5 21.5 6.7533 21.5 12ZM12.4479 6.20053C12.2276 6.01649 11.9071 6.01649 11.6867 6.20053C10.0724 7.54873 8.23167 7.53821 7.52518 7.53417C7.48997 7.53397 7.45757 7.53378 7.42816 7.53378C7.26914 7.53378 7.11676 7.59757 7.00516 7.71087C6.89357 7.82416 6.83208 7.97749 6.83448 8.13649C6.8682 10.3706 6.95734 11.9651 7.13242 13.1337C7.30738 14.3014 7.57574 15.1019 8.00872 15.705C8.44488 16.3125 9.00579 16.6575 9.6034 16.9881C9.70738 17.0456 9.81343 17.1032 9.92198 17.1621L9.92234 17.1623C10.4465 17.4469 11.0293 17.7633 11.7213 18.2596C11.9281 18.408 12.2066 18.408 12.4134 18.2596C13.106 17.7628 13.6896 17.4463 14.2145 17.1615L14.2146 17.1615C14.3227 17.1028 14.4284 17.0455 14.5321 16.9882C15.1301 16.6577 15.6918 16.3129 16.1288 15.7055C16.5627 15.1024 16.832 14.302 17.0076 13.134C17.1833 11.9653 17.2729 10.3707 17.3066 8.13649C17.309 7.97749 17.2475 7.82416 17.1359 7.71087C17.0243 7.59757 16.872 7.53378 16.7129 7.53378C16.6832 7.53378 16.6505 7.53397 16.6149 7.53417C15.9027 7.5382 14.0621 7.54863 12.4479 6.20053ZM8.30681 12.9577C8.15912 11.972 8.07243 10.6218 8.03258 8.71758C8.9444 8.68775 10.552 8.49813 12.0673 7.40733C13.5846 8.49944 15.1944 8.68821 16.1085 8.71768C16.0686 10.6218 15.9815 11.9719 15.8333 12.9574C15.6699 14.0441 15.4398 14.6299 15.1649 15.0119C14.893 15.3898 14.5364 15.629 13.9577 15.9489C13.8639 16.0007 13.765 16.0543 13.6611 16.1106C13.2158 16.3518 12.6799 16.6422 12.0673 17.0543C11.4556 16.6427 10.9205 16.3526 10.476 16.1115C10.3717 16.0549 10.2724 16.0011 10.1782 15.949C9.60024 15.6292 9.24446 15.3901 8.97337 15.0125C8.6991 14.6304 8.46966 14.0446 8.30681 12.9577Z" fill="#3375BB"/>
</svg>
