<svg width="24" height="24" viewBox="0 0 24 24" fill="none" xmlns="http://www.w3.org/2000/svg">
<path fill-rule="evenodd" clip-rule="evenodd" d="M8.118 10.4038L12.0024 6.52097L15.8883 10.4069L18.1472 8.14643L12.0024 2L5.85751 8.14485L8.118 10.4038ZM2 12.0008L4.25891 9.7403L6.51939 12.0008L4.25891 14.2597L2 12.0008ZM12.0024 17.4806L8.118 13.5962L5.85751 15.8567L12.0039 21.9984L18.1488 15.852L15.8883 13.5947L12.0024 17.4806ZM17.4806 12.0008L19.7395 9.7403L22 11.9992L19.7395 14.2613L17.4806 12.0008ZM12.0024 9.70556L14.2944 11.9992V12.0008L12.0024 14.2866L9.71029 11.9961L10.1115 11.5948L10.3074 11.4005L12.0024 9.70556Z" fill="#F3BA2F"/>
</svg>
