<svg width="24" height="24" viewBox="0 0 24 24" fill="none" xmlns="http://www.w3.org/2000/svg">
<path d="M20.1036 3L13.0801 8.21647L14.3789 5.13882L20.1036 3Z" fill="#E2761B" stroke="#E2761B" stroke-width="0.094902" stroke-linecap="round" stroke-linejoin="round"/>
<path d="M3.88965 3L10.8567 8.26588L9.62141 5.13882L3.88965 3Z" fill="#E4761B" stroke="#E4761B" stroke-width="0.094902" stroke-linecap="round" stroke-linejoin="round"/>
<path d="M17.5766 15.0918L15.7061 17.9577L19.7084 19.0589L20.859 15.1553L17.5766 15.0918Z" fill="#E4761B" stroke="#E4761B" stroke-width="0.094902" stroke-linecap="round" stroke-linejoin="round"/>
<path d="M3.14844 15.1553L4.29197 19.0589L8.29432 17.9577L6.42373 15.0918L3.14844 15.1553Z" fill="#E4761B" stroke="#E4761B" stroke-width="0.094902" stroke-linecap="round" stroke-linejoin="round"/>
<path d="M8.06842 10.2494L6.95312 11.9365L10.9272 12.1129L10.7861 7.84235L8.06842 10.2494Z" fill="#E4761B" stroke="#E4761B" stroke-width="0.094902" stroke-linecap="round" stroke-linejoin="round"/>
<path d="M15.9248 10.2494L13.1718 7.79291L13.0801 12.1129L17.0471 11.9364L15.9248 10.2494Z" fill="#E4761B" stroke="#E4761B" stroke-width="0.094902" stroke-linecap="round" stroke-linejoin="round"/>
<path d="M8.29395 17.9576L10.6798 16.7929L8.61865 15.1835L8.29395 17.9576Z" fill="#E4761B" stroke="#E4761B" stroke-width="0.094902" stroke-linecap="round" stroke-linejoin="round"/>
<path d="M13.3135 16.7929L15.7064 17.9576L15.3747 15.1835L13.3135 16.7929Z" fill="#E4761B" stroke="#E4761B" stroke-width="0.094902" stroke-linecap="round" stroke-linejoin="round"/>
<path d="M15.7054 17.9577L13.3125 16.793L13.5031 18.353L13.4819 19.0094L15.7054 17.9577Z" fill="#D7C1B3" stroke="#D7C1B3" stroke-width="0.094902" stroke-linecap="round" stroke-linejoin="round"/>
<path d="M8.29395 17.9577L10.5175 19.0094L10.5034 18.353L10.6798 16.793L8.29395 17.9577Z" fill="#D7C1B3" stroke="#D7C1B3" stroke-width="0.094902" stroke-linecap="round" stroke-linejoin="round"/>
<path d="M10.5531 14.153L8.5625 13.5672L9.96721 12.9248L10.5531 14.153Z" fill="#233447" stroke="#233447" stroke-width="0.094902" stroke-linecap="round" stroke-linejoin="round"/>
<path d="M13.4404 14.153L14.0263 12.9248L15.4381 13.5672L13.4404 14.153Z" fill="#233447" stroke="#233447" stroke-width="0.094902" stroke-linecap="round" stroke-linejoin="round"/>
<path d="M8.29442 17.9577L8.63324 15.0919L6.42383 15.1554L8.29442 17.9577Z" fill="#CD6116" stroke="#CD6116" stroke-width="0.094902" stroke-linecap="round" stroke-linejoin="round"/>
<path d="M15.3672 15.0919L15.706 17.9577L17.5766 15.1554L15.3672 15.0919Z" fill="#CD6116" stroke="#CD6116" stroke-width="0.094902" stroke-linecap="round" stroke-linejoin="round"/>
<path d="M17.0471 11.9365L13.0801 12.113L13.4471 14.153L14.033 12.9248L15.4448 13.5671L17.0471 11.9365Z" fill="#CD6116" stroke="#CD6116" stroke-width="0.094902" stroke-linecap="round" stroke-linejoin="round"/>
<path d="M8.56254 13.5671L9.9743 12.9248L10.5531 14.153L10.9272 12.113L6.95312 11.9365L8.56254 13.5671Z" fill="#CD6116" stroke="#CD6116" stroke-width="0.094902" stroke-linecap="round" stroke-linejoin="round"/>
<path d="M6.95312 11.9365L8.61901 15.1836L8.56254 13.5671L6.95312 11.9365Z" fill="#E4751F" stroke="#E4751F" stroke-width="0.094902" stroke-linecap="round" stroke-linejoin="round"/>
<path d="M15.4446 13.5671L15.374 15.1836L17.047 11.9365L15.4446 13.5671Z" fill="#E4751F" stroke="#E4751F" stroke-width="0.094902" stroke-linecap="round" stroke-linejoin="round"/>
<path d="M10.9269 12.113L10.5527 14.153L11.0186 16.56L11.1245 13.3906L10.9269 12.113Z" fill="#E4751F" stroke="#E4751F" stroke-width="0.094902" stroke-linecap="round" stroke-linejoin="round"/>
<path d="M13.0802 12.113L12.8896 13.3836L12.9744 16.56L13.4473 14.153L13.0802 12.113Z" fill="#E4751F" stroke="#E4751F" stroke-width="0.094902" stroke-linecap="round" stroke-linejoin="round"/>
<path d="M13.4476 14.1529L12.9746 16.56L13.3134 16.7929L15.3746 15.1835L15.4452 13.567L13.4476 14.1529Z" fill="#F6851B" stroke="#F6851B" stroke-width="0.094902" stroke-linecap="round" stroke-linejoin="round"/>
<path d="M8.5625 13.567L8.61897 15.1835L10.6801 16.7929L11.019 16.56L10.5531 14.1529L8.5625 13.567Z" fill="#F6851B" stroke="#F6851B" stroke-width="0.094902" stroke-linecap="round" stroke-linejoin="round"/>
<path d="M13.4822 19.0094L13.5034 18.3529L13.3269 18.1976H10.6657L10.5034 18.3529L10.5175 19.0094L8.29395 17.9576L9.07042 18.5929L10.6445 19.6871H13.3481L14.9292 18.5929L15.7057 17.9576L13.4822 19.0094Z" fill="#C0AD9E" stroke="#C0AD9E" stroke-width="0.094902" stroke-linecap="round" stroke-linejoin="round"/>
<path d="M13.3133 16.7929L12.9745 16.5599H11.0192L10.6804 16.7929L10.5039 18.3529L10.6663 18.1976H13.3274L13.5039 18.3529L13.3133 16.7929Z" fill="#161616" stroke="#161616" stroke-width="0.094902" stroke-linecap="round" stroke-linejoin="round"/>
<path d="M20.3996 8.55529L20.9996 5.67529L20.1031 3L13.3125 8.04L15.9243 10.2494L19.616 11.3294L20.4349 10.3765L20.0819 10.1224L20.6466 9.60706L20.209 9.26824L20.7737 8.83765L20.3996 8.55529Z" fill="#763D16" stroke="#763D16" stroke-width="0.094902" stroke-linecap="round" stroke-linejoin="round"/>
<path d="M3 5.67529L3.6 8.55529L3.21882 8.83765L3.78353 9.26824L3.35294 9.60706L3.91765 10.1224L3.56471 10.3765L4.37647 11.3294L8.06824 10.2494L10.68 8.04L3.88941 3L3 5.67529Z" fill="#763D16" stroke="#763D16" stroke-width="0.094902" stroke-linecap="round" stroke-linejoin="round"/>
<path d="M19.6164 11.3294L15.9246 10.2494L17.047 11.9364L15.374 15.1835L17.5764 15.1553H20.8587L19.6164 11.3294Z" fill="#F6851B" stroke="#F6851B" stroke-width="0.094902" stroke-linecap="round" stroke-linejoin="round"/>
<path d="M8.06844 10.2494L4.37667 11.3294L3.14844 15.1553H6.42373L8.61903 15.1835L6.95314 11.9364L8.06844 10.2494Z" fill="#F6851B" stroke="#F6851B" stroke-width="0.094902" stroke-linecap="round" stroke-linejoin="round"/>
<path d="M13.0799 12.1129L13.3129 8.03997L14.3858 5.13879H9.62109L10.6799 8.03997L10.927 12.1129L11.0117 13.3976L11.0187 16.56H12.974L12.9882 13.3976L13.0799 12.1129Z" fill="#F6851B" stroke="#F6851B" stroke-width="0.094902" stroke-linecap="round" stroke-linejoin="round"/>
</svg>
