<svg width="24" height="24" viewBox="0 0 24 24" fill="none" xmlns="http://www.w3.org/2000/svg">
<path d="M12 21.5C17.2467 21.5 21.5 17.2467 21.5 12C21.5 6.75329 17.2467 2.5 12 2.5C6.7533 2.5 2.5 6.75329 2.5 12C2.5 17.2467 6.7533 21.5 12 21.5Z" fill="#3259A5"/>
<path d="M15.2764 12.6197C14.9862 14.1576 13.6368 15.3205 12.0148 15.3205C10.1808 15.3205 8.69439 13.8341 8.69439 12.0001C8.69439 10.1661 10.1808 8.67974 12.0148 8.67974C13.6368 8.67974 14.9862 9.84328 15.2764 11.3805H18.6268C18.3144 8.00341 15.4734 5.35938 12.0148 5.35938C8.34677 5.35938 5.37402 8.33277 5.37402 12.0001C5.37402 15.6681 8.34742 18.6409 12.0148 18.6409C15.4734 18.6409 18.3144 15.9968 18.6268 12.6197H15.2764Z" fill="white"/>
</svg>
